<?xml version="1.0" encoding="UTF-8" standalone="no"?>
<!DOCTYPE svg PUBLIC "-//W3C//DTD SVG 1.1//EN" "http://www.w3.org/Graphics/SVG/1.1/DTD/svg11.dtd">
<svg width="100%" height="100%" viewBox="0 0 117 117" version="1.1" xmlns="http://www.w3.org/2000/svg" xmlns:xlink="http://www.w3.org/1999/xlink" xml:space="preserve" style="fill-rule:evenodd;clip-rule:evenodd;stroke-linejoin:round;stroke-miterlimit:1.41421;">
    <g transform="matrix(1,0,0,1,-2543,-2179.86)">
        <g id="Artboard5" transform="matrix(0.814401,0,0,0.811166,489.892,498.95)">
            <rect x="2521" y="2072.21" width="143.23" height="143.23" style="fill:none;"/>
            <g transform="matrix(1.2279,0,0,1.23279,1120.4,-626.381)">
                <path d="M1233.22,2295.02C1229.45,2297.73 1225.42,2299.93 1221.12,2301.61C1217.12,2303.18 1213.07,2304.3 1208.97,2304.99L1208.97,2285.7C1210.53,2285.25 1212.09,2284.72 1213.64,2284.08C1215.63,2283.27 1217.54,2282.3 1219.37,2281.17L1233.22,2295.02ZM1189.29,2286.19L1189.29,2304.95C1185.07,2304.23 1180.91,2303.04 1176.8,2301.39C1172.63,2299.71 1168.72,2297.58 1165.08,2294.98L1178.27,2281.79C1180.02,2282.83 1181.86,2283.72 1183.78,2284.47C1185.6,2285.18 1187.44,2285.75 1189.29,2286.19ZM1160.52,2258.14C1160.92,2259.68 1161.42,2261.19 1162,2262.7C1162.69,2264.45 1163.5,2266.14 1164.45,2267.78L1151.13,2281.1C1148.45,2277.37 1146.27,2273.4 1144.59,2269.18C1143.14,2265.54 1142.05,2261.86 1141.34,2258.14L1160.52,2258.14ZM1256.61,2258.14C1255.89,2261.94 1254.8,2265.69 1253.34,2269.4C1251.7,2273.54 1249.61,2277.42 1247.07,2281.04L1233.18,2267.15C1234.19,2265.44 1235.07,2263.66 1235.81,2261.81C1236.29,2260.59 1236.72,2259.37 1237.09,2258.14L1256.61,2258.14ZM1199.35,2223.7C1212.56,2223.7 1223.29,2234.43 1223.29,2247.64C1223.29,2260.85 1212.56,2271.57 1199.35,2271.57C1186.14,2271.57 1175.41,2260.85 1175.41,2247.64C1175.41,2234.43 1186.14,2223.7 1199.35,2223.7ZM1199.35,2237.66C1204.86,2237.66 1209.33,2242.13 1209.33,2247.64C1209.33,2253.14 1204.86,2257.62 1199.35,2257.62C1193.84,2257.62 1189.37,2253.14 1189.37,2247.64C1189.37,2242.13 1193.84,2237.66 1199.35,2237.66ZM1160.27,2238.46L1140.92,2238.46C1141.59,2233.92 1142.8,2229.44 1144.53,2225.02C1146.21,2220.72 1148.41,2216.69 1151.12,2212.92L1165.08,2226.89C1163.95,2228.72 1162.98,2230.62 1162.17,2232.61C1161.38,2234.54 1160.75,2236.49 1160.27,2238.46ZM1257.01,2238.46L1238.13,2238.46C1237.68,2236.17 1237.01,2233.9 1236.14,2231.66C1235.44,2229.85 1234.6,2228.11 1233.62,2226.44L1247.08,2212.98C1249.65,2216.64 1251.76,2220.58 1253.39,2224.79C1255.13,2229.29 1256.34,2233.85 1257.01,2238.46ZM1189.29,2189.29L1189.29,2208.71C1187.64,2209.17 1186.01,2209.73 1184.39,2210.39C1182.55,2211.14 1180.78,2212.03 1179.08,2213.05L1165.1,2199.07C1168.72,2196.53 1172.6,2194.44 1176.74,2192.81C1180.88,2191.17 1185.06,2190 1189.29,2189.29ZM1233.19,2199.03L1219.73,2212.49C1218.02,2211.48 1216.23,2210.61 1214.37,2209.89C1212.58,2209.19 1210.78,2208.63 1208.97,2208.21L1208.97,2189.24C1213.09,2189.92 1217.15,2191.03 1221.18,2192.58C1225.45,2194.22 1229.45,2196.37 1233.19,2199.03Z" style="fill:url(#_Linear1);"/>
            </g>
        </g>
    </g>
    <defs>
        <linearGradient id="_Linear1" x1="0" y1="0" x2="1" y2="0" gradientUnits="userSpaceOnUse" gradientTransform="matrix(19.8998,-143.888,144.245,19.8506,1190.2,2320.45)"><stop offset="0%" style="stop-color:rgb(0,255,99);stop-opacity:1"/><stop offset="100%" style="stop-color:rgb(158,0,255);stop-opacity:1"/></linearGradient>
    </defs>
</svg>
