<?xml version="1.0" encoding="UTF-8" standalone="no"?>
<!DOCTYPE svg PUBLIC "-//W3C//DTD SVG 1.1//EN" "http://www.w3.org/Graphics/SVG/1.1/DTD/svg11.dtd">
<svg width="100%" height="100%" viewBox="0 0 650 121" version="1.1" xmlns="http://www.w3.org/2000/svg" xmlns:xlink="http://www.w3.org/1999/xlink" xml:space="preserve" style="fill-rule:evenodd;clip-rule:evenodd;stroke-linejoin:round;stroke-miterlimit:1.41421;">
    <g transform="matrix(1,0,0,1,-1918.65,-2334.65)">
        <g id="Artboard6" transform="matrix(1,0,0,0.313205,0,1603.43)">
            <rect x="1918.64" y="2334.66" width="649.202" height="385.809" style="fill:none;"/>
            <g transform="matrix(1,0,0,7.85298,1115.62,5919.94)">
                <g transform="matrix(1,0,0,0.406572,145.06,-659.937)">
                    <text x="808.286px" y="616.399px" style="font-family:'JosefinSans-Bold', 'Josefin Sans';font-weight:700;font-size:48px;fill:white;">M<tspan x="873.806px 933.662px 987.086px 1023.13px 1074.93px 1124.99px 1161.04px 1222.57px 1274.37px " y="616.399px 616.399px 616.399px 616.399px 616.399px 616.399px 616.399px 616.399px 616.399px ">OVIEPIQER</tspan></text>
                </g>
                <g transform="matrix(0.707107,0.28749,-0.707107,0.28749,710.873,-1082.15)">
                    <path d="M1216.65,1057.67C1218.02,1058.47 1219.44,1059.19 1220.92,1059.84C1222.64,1060.6 1224.42,1061.22 1226.24,1061.71L1226.24,1080.54C1221.71,1079.8 1217.36,1078.54 1213.18,1076.74C1209.59,1075.19 1206.22,1073.36 1203.09,1071.24L1216.65,1057.67ZM1256.82,1057.16L1270.09,1070.43C1266.6,1072.9 1262.81,1075 1258.74,1076.74C1254.61,1078.5 1250.33,1079.76 1245.92,1080.5L1245.92,1061.84C1247.9,1061.34 1249.83,1060.67 1251.71,1059.84C1253.5,1059.06 1255.21,1058.16 1256.82,1057.16ZM1178.03,1032.34L1197.78,1032.34C1198.27,1034.43 1198.93,1036.47 1199.76,1038.45C1200.57,1040.38 1201.5,1042.2 1202.55,1043.93L1188.88,1057.61C1186.14,1053.93 1183.82,1049.91 1181.92,1045.55C1180.07,1041.33 1178.78,1036.92 1178.03,1032.34ZM1294.13,1032.34C1293.38,1036.92 1292.09,1041.33 1290.24,1045.55C1288.52,1049.49 1286.45,1053.15 1284.04,1056.54L1270.39,1042.89C1271.19,1041.47 1271.91,1039.99 1272.56,1038.45C1273.39,1036.47 1274.05,1034.43 1274.54,1032.34L1294.13,1032.34ZM1284.59,989.729C1286.77,992.919 1288.65,996.343 1290.24,1000C1292.01,1004.08 1293.28,1008.3 1294.04,1012.66L1274.4,1012.66C1273.9,1010.73 1273.26,1008.86 1272.48,1007.03C1271.96,1005.83 1271.4,1004.66 1270.79,1003.53L1284.59,989.729ZM1188.3,988.641L1202.04,1002.38C1201.2,1003.86 1200.44,1005.41 1199.76,1007.03C1199,1008.86 1198.37,1010.73 1197.89,1012.66L1178.12,1012.66C1178.88,1008.3 1180.15,1004.08 1181.92,1000C1183.69,995.923 1185.82,992.137 1188.3,988.641ZM1245.92,964.53C1250.33,965.3 1254.61,966.597 1258.74,968.42C1263.15,970.368 1267.23,972.736 1270.96,975.525L1257.61,988.875C1255.67,987.574 1253.6,986.44 1251.4,985.473C1249.62,984.692 1247.79,984.056 1245.92,983.564L1245.92,964.53ZM1226.24,964.487L1226.24,983.523C1224.31,984.02 1222.43,984.67 1220.61,985.473C1218.85,986.244 1217.18,987.12 1215.6,988.103L1202.19,974.693C1205.58,972.262 1209.25,970.171 1213.18,968.42C1217.36,966.563 1221.71,965.252 1226.24,964.487Z" style="fill:rgb(255,216,0);"/>
                </g>
            </g>
        </g>
    </g>
</svg>
