<?xml version="1.0" encoding="UTF-8" standalone="no"?>
<!DOCTYPE svg PUBLIC "-//W3C//DTD SVG 1.1//EN" "http://www.w3.org/Graphics/SVG/1.1/DTD/svg11.dtd">
<svg width="100%" height="100%" viewBox="0 0 503 44" version="1.1" xmlns="http://www.w3.org/2000/svg" xmlns:xlink="http://www.w3.org/1999/xlink" xml:space="preserve" style="fill-rule:evenodd;clip-rule:evenodd;stroke-linejoin:round;stroke-miterlimit:1.41421;">
    <g transform="matrix(1,0,0,1,-1415.91,-2072.21)">
        <g id="Artboard4" transform="matrix(0.768979,0,0,0.226576,327.105,1602.7)">
            <rect x="1415.91" y="2072.21" width="653.767" height="192.586" style="fill:none;"/>
            <g transform="matrix(2.66357,0,0,1.53683,-737.014,1194.94)">
                <g>
                    <g>
                        <g transform="matrix(0.488227,0,0,2.87184,413.659,-1083.63)">
                            <path d="M812.318,579.871C812.478,580.095 812.83,580.599 813.374,581.383C813.918,582.167 814.598,583.127 815.414,584.263C816.23,585.399 817.142,586.655 818.15,588.031C819.158,589.407 820.182,590.807 821.222,592.231C822.262,593.655 823.278,595.047 824.27,596.407C825.262,597.767 826.158,599.007 826.958,600.127C827.758,601.247 828.438,602.183 828.998,602.935C829.558,603.687 829.902,604.159 830.03,604.351C830.094,604.255 830.382,603.847 830.894,603.127C831.406,602.407 832.054,601.503 832.838,600.415C833.622,599.327 834.51,598.087 835.502,596.695C836.494,595.303 837.518,593.887 838.574,592.447C839.63,591.007 840.662,589.583 841.67,588.175C842.678,586.767 843.606,585.487 844.454,584.335C845.302,583.183 846.014,582.207 846.59,581.407C847.166,580.607 847.534,580.095 847.694,579.871L847.694,616.399L841.406,616.399L841.406,598.543C841.406,598.287 841.438,598.015 841.502,597.727C841.566,597.439 841.598,597.263 841.598,597.199L830.03,613.855C829.87,613.663 829.478,613.135 828.854,612.271C828.23,611.407 827.486,610.383 826.622,609.199C825.758,608.015 824.846,606.743 823.886,605.383C822.926,604.023 822.022,602.759 821.174,601.591C820.326,600.423 819.606,599.431 819.014,598.615C818.422,597.799 818.094,597.327 818.03,597.199C818.03,597.263 818.062,597.439 818.126,597.727C818.19,598.015 818.222,598.287 818.222,598.543L818.222,616.399L812.318,616.399L812.318,579.871Z" style="fill:white;fill-rule:nonzero;"/>
                        </g>
                        <g transform="matrix(0.488227,0,0,2.87184,413.659,-1083.63)">
                            <path d="M875.534,598.975C875.534,596.543 876.006,594.239 876.95,592.063C877.894,589.887 879.174,587.983 880.79,586.351C882.406,584.719 884.294,583.423 886.454,582.463C888.614,581.503 890.926,581.023 893.39,581.023C895.822,581.023 898.126,581.503 900.302,582.463C902.478,583.423 904.382,584.719 906.014,586.351C907.646,587.983 908.934,589.887 909.878,592.063C910.822,594.239 911.294,596.543 911.294,598.975C911.294,601.439 910.822,603.751 909.878,605.911C908.934,608.071 907.646,609.959 906.014,611.575C904.382,613.191 902.478,614.463 900.302,615.391C898.126,616.319 895.822,616.783 893.39,616.783C890.926,616.783 888.614,616.319 886.454,615.391C884.294,614.463 882.406,613.191 880.79,611.575C879.174,609.959 877.894,608.071 876.95,605.911C876.006,603.751 875.534,601.439 875.534,598.975ZM881.438,598.975C881.438,600.671 881.75,602.263 882.374,603.751C882.998,605.239 883.862,606.535 884.966,607.639C886.07,608.743 887.35,609.615 888.806,610.255C890.262,610.895 891.838,611.215 893.534,611.215C895.166,611.215 896.71,610.895 898.166,610.255C899.622,609.615 900.886,608.743 901.958,607.639C903.03,606.535 903.878,605.239 904.502,603.751C905.126,602.263 905.438,600.671 905.438,598.975C905.438,597.279 905.118,595.687 904.478,594.199C903.838,592.711 902.974,591.407 901.886,590.287C900.798,589.167 899.526,588.287 898.07,587.647C896.614,587.007 895.054,586.687 893.39,586.687C891.726,586.687 890.166,587.007 888.71,587.647C887.254,588.287 885.99,589.167 884.918,590.287C883.846,591.407 882.998,592.711 882.374,594.199C881.75,595.687 881.438,597.279 881.438,598.975Z" style="fill:white;fill-rule:nonzero;"/>
                        </g>
                        <g transform="matrix(0.488227,0,0,2.87184,413.659,-1083.63)">
                            <path d="M939.47,581.407L948.83,603.919C948.83,603.951 948.894,604.167 949.022,604.567C949.15,604.967 949.246,605.343 949.31,605.695C949.374,605.343 949.47,604.967 949.598,604.567C949.726,604.167 949.806,603.951 949.838,603.919L959.198,581.407L965.006,581.407C964.878,581.695 964.574,582.415 964.094,583.567C963.614,584.719 963.014,586.135 962.294,587.815C961.574,589.495 960.774,591.367 959.894,593.431C959.014,595.495 958.11,597.591 957.182,599.719C956.254,601.847 955.35,603.951 954.47,606.031C953.59,608.111 952.79,609.991 952.07,611.671C951.35,613.351 950.742,614.759 950.246,615.895C949.75,617.031 949.438,617.743 949.31,618.031C949.182,617.743 948.878,617.031 948.398,615.895C947.918,614.759 947.318,613.351 946.598,611.671C945.878,609.991 945.078,608.111 944.198,606.031C943.318,603.951 942.414,601.847 941.486,599.719C940.558,597.591 939.654,595.495 938.774,593.431C937.894,591.367 937.094,589.495 936.374,587.815C935.654,586.135 935.054,584.719 934.574,583.567C934.094,582.415 933.79,581.695 933.662,581.407L939.47,581.407Z" style="fill:white;fill-rule:nonzero;"/>
                        </g>
                        <g transform="matrix(0.488227,0,0,2.87184,413.659,-1083.63)">
                            <rect x="991.118" y="581.407" width="5.904" height="34.992" style="fill:white;fill-rule:nonzero;"/>
                        </g>
                        <g transform="matrix(0.488227,0,0,2.87184,413.659,-1083.63)">
                            <path d="M1027.17,616.399L1027.17,581.407L1050.4,581.407L1050.4,586.735L1033.02,586.735L1033.02,596.143L1048.48,596.143L1048.48,601.615L1033.02,601.615L1033.02,610.927L1051.07,610.927L1051.07,616.399L1027.17,616.399Z" style="fill:white;fill-rule:nonzero;"/>
                        </g>
                        <g transform="matrix(0.488227,0,0,2.87184,413.659,-1083.63)">
                            <path d="M1084.81,598.831L1089.52,598.831C1090.73,598.831 1091.74,598.623 1092.54,598.207C1093.34,597.791 1093.98,597.271 1094.46,596.647C1094.94,596.023 1095.28,595.367 1095.47,594.679C1095.66,593.991 1095.76,593.375 1095.76,592.831C1095.76,592.319 1095.67,591.719 1095.49,591.031C1095.32,590.343 1095,589.695 1094.53,589.087C1094.07,588.479 1093.44,587.967 1092.64,587.551C1091.84,587.135 1090.81,586.927 1089.57,586.927L1084.81,586.927L1084.81,598.831ZM1078.96,616.399L1078.96,581.407L1088.85,581.407C1090.77,581.407 1092.52,581.663 1094.1,582.175C1095.69,582.687 1097.03,583.423 1098.13,584.383C1099.24,585.343 1100.09,586.527 1100.7,587.935C1101.31,589.343 1101.61,590.927 1101.61,592.687C1101.61,594.095 1101.41,595.495 1100.99,596.887C1100.57,598.279 1099.89,599.527 1098.95,600.631C1098.01,601.735 1096.78,602.631 1095.28,603.319C1093.77,604.007 1091.92,604.351 1089.71,604.351L1084.81,604.351L1084.81,616.399L1078.96,616.399Z" style="fill:white;fill-rule:nonzero;"/>
                        </g>
                        <g transform="matrix(0.488227,0,0,2.87184,413.659,-1083.63)">
                            <rect x="1129.02" y="581.407" width="5.904" height="34.992" style="fill:white;fill-rule:nonzero;"/>
                        </g>
                        <g transform="matrix(0.488227,0,0,2.87184,413.659,-1083.63)">
                            <path d="M1162.77,598.975C1162.77,596.543 1163.23,594.239 1164.16,592.063C1165.09,589.887 1166.36,587.983 1167.97,586.351C1169.59,584.719 1171.48,583.423 1173.64,582.463C1175.8,581.503 1178.11,581.023 1180.57,581.023C1183.01,581.023 1185.31,581.503 1187.49,582.463C1189.66,583.423 1191.57,584.719 1193.2,586.351C1194.83,587.983 1196.12,589.887 1197.06,592.063C1198.01,594.239 1198.48,596.543 1198.48,598.975C1198.48,601.247 1198.14,603.399 1197.47,605.431C1196.8,607.463 1195.81,609.407 1194.49,611.263L1199.63,610.831L1199.63,616.399L1184.32,616.399C1183.68,616.527 1183.05,616.623 1182.45,616.687C1181.84,616.751 1181.21,616.783 1180.57,616.783C1178.11,616.783 1175.8,616.319 1173.64,615.391C1171.48,614.463 1169.59,613.191 1167.97,611.575C1166.36,609.959 1165.09,608.071 1164.16,605.911C1163.23,603.751 1162.77,601.439 1162.77,598.975ZM1168.62,598.975C1168.62,600.671 1168.94,602.263 1169.58,603.751C1170.22,605.239 1171.09,606.535 1172.17,607.639C1173.26,608.743 1174.54,609.615 1176.01,610.255C1177.49,610.895 1179.05,611.215 1180.72,611.215C1182.38,611.215 1183.93,610.895 1185.37,610.255C1186.81,609.615 1188.07,608.743 1189.14,607.639C1190.21,606.535 1191.06,605.239 1191.69,603.751C1192.31,602.263 1192.62,600.671 1192.62,598.975C1192.62,597.279 1192.31,595.687 1191.69,594.199C1191.06,592.711 1190.21,591.407 1189.12,590.287C1188.03,589.167 1186.76,588.287 1185.3,587.647C1183.85,587.007 1182.29,586.687 1180.62,586.687C1178.96,586.687 1177.4,587.007 1175.94,587.647C1174.49,588.287 1173.21,589.167 1172.13,590.287C1171.04,591.407 1170.18,592.711 1169.56,594.199C1168.93,595.687 1168.62,597.279 1168.62,598.975Z" style="fill:white;fill-rule:nonzero;"/>
                        </g>
                        <g transform="matrix(0.488227,0,0,2.87184,413.659,-1083.63)">
                            <path d="M1226.61,616.399L1226.61,581.407L1249.84,581.407L1249.84,586.735L1232.46,586.735L1232.46,596.143L1247.92,596.143L1247.92,601.615L1232.46,601.615L1232.46,610.927L1250.51,610.927L1250.51,616.399L1226.61,616.399Z" style="fill:white;fill-rule:nonzero;"/>
                        </g>
                        <g transform="matrix(0.488227,0,0,2.87184,413.659,-1083.63)">
                            <path d="M1278.4,616.399L1278.4,581.407L1288.29,581.407C1290.21,581.407 1291.96,581.663 1293.54,582.175C1295.13,582.687 1296.47,583.423 1297.57,584.383C1298.68,585.343 1299.53,586.527 1300.14,587.935C1300.75,589.343 1301.05,590.927 1301.05,592.687C1301.05,593.647 1300.96,594.607 1300.77,595.567C1300.57,596.527 1300.27,597.455 1299.85,598.351C1299.44,599.247 1298.89,600.071 1298.22,600.823C1297.55,601.575 1296.75,602.223 1295.82,602.767C1296.53,603.887 1297.21,604.983 1297.89,606.055C1298.56,607.127 1299.24,608.207 1299.93,609.295C1300.61,610.383 1301.33,611.503 1302.06,612.655C1302.8,613.807 1303.6,615.055 1304.46,616.399L1297.41,616.399C1295.97,614.159 1294.61,612.039 1293.33,610.039C1292.05,608.039 1290.81,606.143 1289.63,604.351L1289.15,604.351L1284.25,604.351L1284.25,616.399L1278.4,616.399ZM1284.25,598.831L1288.96,598.831C1290.17,598.831 1291.18,598.623 1291.98,598.207C1292.78,597.791 1293.42,597.287 1293.9,596.695C1294.38,596.103 1294.72,595.463 1294.91,594.775C1295.1,594.087 1295.2,593.455 1295.2,592.879C1295.2,592.335 1295.11,591.719 1294.93,591.031C1294.76,590.343 1294.44,589.695 1293.97,589.087C1293.51,588.479 1292.88,587.967 1292.08,587.551C1291.28,587.135 1290.25,586.927 1289.01,586.927L1284.25,586.927L1284.25,598.831Z" style="fill:white;fill-rule:nonzero;"/>
                        </g>
                    </g>
                </g>
            </g>
            <g transform="matrix(2.66357,0,0,1.53683,-737.014,1194.94)">
                <g>
                    <g>
                        <g transform="matrix(0.488227,0,0,2.87184,413.659,-1083.63)">
                            <path d="M812.318,579.871C812.478,580.095 812.83,580.599 813.374,581.383C813.918,582.167 814.598,583.127 815.414,584.263C816.23,585.399 817.142,586.655 818.15,588.031C819.158,589.407 820.182,590.807 821.222,592.231C822.262,593.655 823.278,595.047 824.27,596.407C825.262,597.767 826.158,599.007 826.958,600.127C827.758,601.247 828.438,602.183 828.998,602.935C829.558,603.687 829.902,604.159 830.03,604.351C830.094,604.255 830.382,603.847 830.894,603.127C831.406,602.407 832.054,601.503 832.838,600.415C833.622,599.327 834.51,598.087 835.502,596.695C836.494,595.303 837.518,593.887 838.574,592.447C839.63,591.007 840.662,589.583 841.67,588.175C842.678,586.767 843.606,585.487 844.454,584.335C845.302,583.183 846.014,582.207 846.59,581.407C847.166,580.607 847.534,580.095 847.694,579.871L847.694,616.399L841.406,616.399L841.406,598.543C841.406,598.287 841.438,598.015 841.502,597.727C841.566,597.439 841.598,597.263 841.598,597.199L830.03,613.855C829.87,613.663 829.478,613.135 828.854,612.271C828.23,611.407 827.486,610.383 826.622,609.199C825.758,608.015 824.846,606.743 823.886,605.383C822.926,604.023 822.022,602.759 821.174,601.591C820.326,600.423 819.606,599.431 819.014,598.615C818.422,597.799 818.094,597.327 818.03,597.199C818.03,597.263 818.062,597.439 818.126,597.727C818.19,598.015 818.222,598.287 818.222,598.543L818.222,616.399L812.318,616.399L812.318,579.871Z" style="fill:white;fill-rule:nonzero;"/>
                        </g>
                        <g transform="matrix(0.488227,0,0,2.87184,413.659,-1083.63)">
                            <path d="M875.534,598.975C875.534,596.543 876.006,594.239 876.95,592.063C877.894,589.887 879.174,587.983 880.79,586.351C882.406,584.719 884.294,583.423 886.454,582.463C888.614,581.503 890.926,581.023 893.39,581.023C895.822,581.023 898.126,581.503 900.302,582.463C902.478,583.423 904.382,584.719 906.014,586.351C907.646,587.983 908.934,589.887 909.878,592.063C910.822,594.239 911.294,596.543 911.294,598.975C911.294,601.439 910.822,603.751 909.878,605.911C908.934,608.071 907.646,609.959 906.014,611.575C904.382,613.191 902.478,614.463 900.302,615.391C898.126,616.319 895.822,616.783 893.39,616.783C890.926,616.783 888.614,616.319 886.454,615.391C884.294,614.463 882.406,613.191 880.79,611.575C879.174,609.959 877.894,608.071 876.95,605.911C876.006,603.751 875.534,601.439 875.534,598.975ZM881.438,598.975C881.438,600.671 881.75,602.263 882.374,603.751C882.998,605.239 883.862,606.535 884.966,607.639C886.07,608.743 887.35,609.615 888.806,610.255C890.262,610.895 891.838,611.215 893.534,611.215C895.166,611.215 896.71,610.895 898.166,610.255C899.622,609.615 900.886,608.743 901.958,607.639C903.03,606.535 903.878,605.239 904.502,603.751C905.126,602.263 905.438,600.671 905.438,598.975C905.438,597.279 905.118,595.687 904.478,594.199C903.838,592.711 902.974,591.407 901.886,590.287C900.798,589.167 899.526,588.287 898.07,587.647C896.614,587.007 895.054,586.687 893.39,586.687C891.726,586.687 890.166,587.007 888.71,587.647C887.254,588.287 885.99,589.167 884.918,590.287C883.846,591.407 882.998,592.711 882.374,594.199C881.75,595.687 881.438,597.279 881.438,598.975Z" style="fill:white;fill-rule:nonzero;"/>
                        </g>
                        <g transform="matrix(0.488227,0,0,2.87184,413.659,-1083.63)">
                            <path d="M939.47,581.407L948.83,603.919C948.83,603.951 948.894,604.167 949.022,604.567C949.15,604.967 949.246,605.343 949.31,605.695C949.374,605.343 949.47,604.967 949.598,604.567C949.726,604.167 949.806,603.951 949.838,603.919L959.198,581.407L965.006,581.407C964.878,581.695 964.574,582.415 964.094,583.567C963.614,584.719 963.014,586.135 962.294,587.815C961.574,589.495 960.774,591.367 959.894,593.431C959.014,595.495 958.11,597.591 957.182,599.719C956.254,601.847 955.35,603.951 954.47,606.031C953.59,608.111 952.79,609.991 952.07,611.671C951.35,613.351 950.742,614.759 950.246,615.895C949.75,617.031 949.438,617.743 949.31,618.031C949.182,617.743 948.878,617.031 948.398,615.895C947.918,614.759 947.318,613.351 946.598,611.671C945.878,609.991 945.078,608.111 944.198,606.031C943.318,603.951 942.414,601.847 941.486,599.719C940.558,597.591 939.654,595.495 938.774,593.431C937.894,591.367 937.094,589.495 936.374,587.815C935.654,586.135 935.054,584.719 934.574,583.567C934.094,582.415 933.79,581.695 933.662,581.407L939.47,581.407Z" style="fill:white;fill-rule:nonzero;"/>
                        </g>
                        <g transform="matrix(0.488227,0,0,2.87184,413.659,-1083.63)">
                            <rect x="991.118" y="581.407" width="5.904" height="34.992" style="fill:white;fill-rule:nonzero;"/>
                        </g>
                        <g transform="matrix(0.488227,0,0,2.87184,413.659,-1083.63)">
                            <path d="M1027.17,616.399L1027.17,581.407L1050.4,581.407L1050.4,586.735L1033.02,586.735L1033.02,596.143L1048.48,596.143L1048.48,601.615L1033.02,601.615L1033.02,610.927L1051.07,610.927L1051.07,616.399L1027.17,616.399Z" style="fill:white;fill-rule:nonzero;"/>
                        </g>
                        <g transform="matrix(0.488227,0,0,2.87184,413.659,-1083.63)">
                            <path d="M1084.81,598.831L1089.52,598.831C1090.73,598.831 1091.74,598.623 1092.54,598.207C1093.34,597.791 1093.98,597.271 1094.46,596.647C1094.94,596.023 1095.28,595.367 1095.47,594.679C1095.66,593.991 1095.76,593.375 1095.76,592.831C1095.76,592.319 1095.67,591.719 1095.49,591.031C1095.32,590.343 1095,589.695 1094.53,589.087C1094.07,588.479 1093.44,587.967 1092.64,587.551C1091.84,587.135 1090.81,586.927 1089.57,586.927L1084.81,586.927L1084.81,598.831ZM1078.96,616.399L1078.96,581.407L1088.85,581.407C1090.77,581.407 1092.52,581.663 1094.1,582.175C1095.69,582.687 1097.03,583.423 1098.13,584.383C1099.24,585.343 1100.09,586.527 1100.7,587.935C1101.31,589.343 1101.61,590.927 1101.61,592.687C1101.61,594.095 1101.41,595.495 1100.99,596.887C1100.57,598.279 1099.89,599.527 1098.95,600.631C1098.01,601.735 1096.78,602.631 1095.28,603.319C1093.77,604.007 1091.92,604.351 1089.71,604.351L1084.81,604.351L1084.81,616.399L1078.96,616.399Z" style="fill:white;fill-rule:nonzero;"/>
                        </g>
                        <g transform="matrix(0.488227,0,0,2.87184,413.659,-1083.63)">
                            <rect x="1129.02" y="581.407" width="5.904" height="34.992" style="fill:white;fill-rule:nonzero;"/>
                        </g>
                        <g transform="matrix(0.488227,0,0,2.87184,413.659,-1083.63)">
                            <path d="M1162.77,598.975C1162.77,596.543 1163.23,594.239 1164.16,592.063C1165.09,589.887 1166.36,587.983 1167.97,586.351C1169.59,584.719 1171.48,583.423 1173.64,582.463C1175.8,581.503 1178.11,581.023 1180.57,581.023C1183.01,581.023 1185.31,581.503 1187.49,582.463C1189.66,583.423 1191.57,584.719 1193.2,586.351C1194.83,587.983 1196.12,589.887 1197.06,592.063C1198.01,594.239 1198.48,596.543 1198.48,598.975C1198.48,601.247 1198.14,603.399 1197.47,605.431C1196.8,607.463 1195.81,609.407 1194.49,611.263L1199.63,610.831L1199.63,616.399L1184.32,616.399C1183.68,616.527 1183.05,616.623 1182.45,616.687C1181.84,616.751 1181.21,616.783 1180.57,616.783C1178.11,616.783 1175.8,616.319 1173.64,615.391C1171.48,614.463 1169.59,613.191 1167.97,611.575C1166.36,609.959 1165.09,608.071 1164.16,605.911C1163.23,603.751 1162.77,601.439 1162.77,598.975ZM1168.62,598.975C1168.62,600.671 1168.94,602.263 1169.58,603.751C1170.22,605.239 1171.09,606.535 1172.17,607.639C1173.26,608.743 1174.54,609.615 1176.01,610.255C1177.49,610.895 1179.05,611.215 1180.72,611.215C1182.38,611.215 1183.93,610.895 1185.37,610.255C1186.81,609.615 1188.07,608.743 1189.14,607.639C1190.21,606.535 1191.06,605.239 1191.69,603.751C1192.31,602.263 1192.62,600.671 1192.62,598.975C1192.62,597.279 1192.31,595.687 1191.69,594.199C1191.06,592.711 1190.21,591.407 1189.12,590.287C1188.03,589.167 1186.76,588.287 1185.3,587.647C1183.85,587.007 1182.29,586.687 1180.62,586.687C1178.96,586.687 1177.4,587.007 1175.94,587.647C1174.49,588.287 1173.21,589.167 1172.13,590.287C1171.04,591.407 1170.18,592.711 1169.56,594.199C1168.93,595.687 1168.62,597.279 1168.62,598.975Z" style="fill:white;fill-rule:nonzero;"/>
                        </g>
                        <g transform="matrix(0.488227,0,0,2.87184,413.659,-1083.63)">
                            <path d="M1226.61,616.399L1226.61,581.407L1249.84,581.407L1249.84,586.735L1232.46,586.735L1232.46,596.143L1247.92,596.143L1247.92,601.615L1232.46,601.615L1232.46,610.927L1250.51,610.927L1250.51,616.399L1226.61,616.399Z" style="fill:white;fill-rule:nonzero;"/>
                        </g>
                        <g transform="matrix(0.488227,0,0,2.87184,413.659,-1083.63)">
                            <path d="M1278.4,616.399L1278.4,581.407L1288.29,581.407C1290.21,581.407 1291.96,581.663 1293.54,582.175C1295.13,582.687 1296.47,583.423 1297.57,584.383C1298.68,585.343 1299.53,586.527 1300.14,587.935C1300.75,589.343 1301.05,590.927 1301.05,592.687C1301.05,593.647 1300.96,594.607 1300.77,595.567C1300.57,596.527 1300.27,597.455 1299.85,598.351C1299.44,599.247 1298.89,600.071 1298.22,600.823C1297.55,601.575 1296.75,602.223 1295.82,602.767C1296.53,603.887 1297.21,604.983 1297.89,606.055C1298.56,607.127 1299.24,608.207 1299.93,609.295C1300.61,610.383 1301.33,611.503 1302.06,612.655C1302.8,613.807 1303.6,615.055 1304.46,616.399L1297.41,616.399C1295.97,614.159 1294.61,612.039 1293.33,610.039C1292.05,608.039 1290.81,606.143 1289.63,604.351L1289.15,604.351L1284.25,604.351L1284.25,616.399L1278.4,616.399ZM1284.25,598.831L1288.96,598.831C1290.17,598.831 1291.18,598.623 1291.98,598.207C1292.78,597.791 1293.42,597.287 1293.9,596.695C1294.38,596.103 1294.72,595.463 1294.91,594.775C1295.1,594.087 1295.2,593.455 1295.2,592.879C1295.2,592.335 1295.11,591.719 1294.93,591.031C1294.76,590.343 1294.44,589.695 1293.97,589.087C1293.51,588.479 1292.88,587.967 1292.08,587.551C1291.28,587.135 1290.25,586.927 1289.01,586.927L1284.25,586.927L1284.25,598.831Z" style="fill:white;fill-rule:nonzero;"/>
                        </g>
                    </g>
                </g>
            </g>
        </g>
    </g>
</svg>
